<mxfile host="65bd71144e">
    <diagram id="7WDwTrRi5QcS1YBD9-JV" name="Page-1">
        <mxGraphModel dx="2009" dy="1333" grid="1" gridSize="10" guides="1" tooltips="1" connect="1" arrows="1" fold="1" page="1" pageScale="1" pageWidth="1200" pageHeight="1920" math="0" shadow="0">
            <root>
                <mxCell id="0"/>
                <mxCell id="1" parent="0"/>
                <mxCell id="45" style="edgeStyle=none;html=1;exitX=0.25;exitY=1;exitDx=0;exitDy=0;entryX=0.5;entryY=0;entryDx=0;entryDy=0;" edge="1" parent="1" source="29" target="32">
                    <mxGeometry relative="1" as="geometry"/>
                </mxCell>
                <mxCell id="46" style="edgeStyle=none;html=1;exitX=0.75;exitY=1;exitDx=0;exitDy=0;entryX=0.5;entryY=0;entryDx=0;entryDy=0;" edge="1" parent="1" source="29" target="39">
                    <mxGeometry relative="1" as="geometry"/>
                </mxCell>
                <mxCell id="29" value="" style="rounded=0;whiteSpace=wrap;html=1;fillColor=#CCE5FF;" vertex="1" parent="1">
                    <mxGeometry x="350" y="550" width="460" height="60" as="geometry"/>
                </mxCell>
                <mxCell id="2" value="&lt;font style=&quot;font-size: 24px; color: rgb(255, 255, 255);&quot;&gt;64&lt;/font&gt;" style="rounded=1;whiteSpace=wrap;html=1;resizeHeight=0;strokeOpacity=100;fillOpacity=100;strokeColor=none;gradientColor=none;fillColor=#97D077;" vertex="1" parent="1">
                    <mxGeometry x="360" y="560" width="40" height="40" as="geometry"/>
                </mxCell>
                <mxCell id="3" value="&lt;font style=&quot;font-size: 24px; color: rgb(255, 255, 255);&quot;&gt;34&lt;/font&gt;" style="rounded=1;whiteSpace=wrap;html=1;resizeHeight=0;strokeOpacity=100;fillOpacity=100;strokeColor=none;gradientColor=none;fillColor=#97D077;" vertex="1" parent="1">
                    <mxGeometry x="400" y="560" width="40" height="40" as="geometry"/>
                </mxCell>
                <mxCell id="4" value="&lt;font style=&quot;font-size: 24px; color: rgb(255, 255, 255);&quot;&gt;25&lt;/font&gt;" style="rounded=1;whiteSpace=wrap;html=1;resizeHeight=0;strokeOpacity=100;fillOpacity=100;strokeColor=none;gradientColor=none;fillColor=#97D077;" vertex="1" parent="1">
                    <mxGeometry x="440" y="560" width="40" height="40" as="geometry"/>
                </mxCell>
                <mxCell id="5" value="&lt;font style=&quot;font-size: 24px; color: rgb(255, 255, 255);&quot;&gt;12&lt;/font&gt;" style="rounded=1;whiteSpace=wrap;html=1;resizeHeight=0;strokeOpacity=100;fillOpacity=100;strokeColor=none;gradientColor=none;fillColor=#97D077;" vertex="1" parent="1">
                    <mxGeometry x="480" y="560" width="40" height="40" as="geometry"/>
                </mxCell>
                <mxCell id="6" value="&lt;font style=&quot;font-size: 24px; color: rgb(255, 255, 255);&quot;&gt;22&lt;/font&gt;" style="rounded=1;whiteSpace=wrap;html=1;resizeHeight=0;strokeOpacity=100;fillOpacity=100;strokeColor=none;gradientColor=none;fillColor=#97D077;" vertex="1" parent="1">
                    <mxGeometry x="520" y="560" width="40" height="40" as="geometry"/>
                </mxCell>
                <mxCell id="7" value="&lt;font style=&quot;font-size: 24px; color: rgb(255, 255, 255);&quot;&gt;11&lt;/font&gt;" style="rounded=1;whiteSpace=wrap;html=1;resizeHeight=0;strokeOpacity=100;fillOpacity=100;strokeColor=none;gradientColor=none;fillColor=#97D077;" vertex="1" parent="1">
                    <mxGeometry x="560" y="560" width="40" height="40" as="geometry"/>
                </mxCell>
                <mxCell id="8" value="&lt;font style=&quot;font-size: 24px; color: rgb(255, 255, 255);&quot;&gt;90&lt;/font&gt;" style="rounded=1;whiteSpace=wrap;html=1;resizeHeight=0;strokeOpacity=100;fillOpacity=100;strokeColor=none;gradientColor=none;fillColor=#97D077;" vertex="1" parent="1">
                    <mxGeometry x="600" y="560" width="40" height="40" as="geometry"/>
                </mxCell>
                <mxCell id="9" value="&lt;font style=&quot;font-size: 18px;&quot;&gt;&lt;b&gt;归并排序（Merge Sort）&lt;/b&gt;&lt;/font&gt;" style="text;html=1;align=center;verticalAlign=middle;whiteSpace=wrap;rounded=0;" vertex="1" parent="1">
                    <mxGeometry x="240" y="360" width="680" height="40" as="geometry"/>
                </mxCell>
                <mxCell id="10" value="&lt;b&gt;初始数组&lt;/b&gt;" style="text;html=1;align=left;verticalAlign=middle;whiteSpace=wrap;rounded=0;" vertex="1" parent="1">
                    <mxGeometry x="240" y="560" width="80" height="40" as="geometry"/>
                </mxCell>
                <mxCell id="11" value="&lt;b&gt;数组变量&lt;/b&gt;" style="text;html=1;align=left;verticalAlign=middle;whiteSpace=wrap;rounded=0;" vertex="1" parent="1">
                    <mxGeometry x="240" y="440" width="80" height="40" as="geometry"/>
                </mxCell>
                <mxCell id="12" value="&lt;div style=&quot;background-color: rgb(255, 255, 255); color: rgb(8, 8, 8);&quot;&gt;&lt;pre style=&quot;font-family:&#39;JetBrains Mono&#39;,monospace;font-size:12.0pt;&quot;&gt;&lt;div style=&quot;color: rgb(8, 8, 8);&quot;&gt;&lt;pre style=&quot;font-family:&#39;JetBrains Mono&#39;,monospace;font-size:12.0pt;&quot;&gt;&lt;span style=&quot;color:#0033b3;&quot;&gt;int &lt;/span&gt;&lt;span style=&quot;color:#000000;&quot;&gt;arr&lt;/span&gt;&lt;span style=&quot;color:#3f9101;&quot;&gt;[] &lt;/span&gt;= &lt;span style=&quot;color:#0e4a8e;&quot;&gt;{&lt;/span&gt;&lt;span style=&quot;color:#1750eb;&quot;&gt;64&lt;/span&gt;, &lt;span style=&quot;color:#1750eb;&quot;&gt;34&lt;/span&gt;, &lt;span style=&quot;color:#1750eb;&quot;&gt;25&lt;/span&gt;, &lt;span style=&quot;color:#1750eb;&quot;&gt;12&lt;/span&gt;, &lt;span style=&quot;color:#1750eb;&quot;&gt;22&lt;/span&gt;, &lt;span style=&quot;color:#1750eb;&quot;&gt;11&lt;/span&gt;, &lt;span style=&quot;color:#1750eb;&quot;&gt;90&lt;/span&gt;, &lt;span style=&quot;color:#1750eb;&quot;&gt;66&lt;/span&gt;, &lt;span style=&quot;color:#1750eb;&quot;&gt;39&lt;/span&gt;, &lt;span style=&quot;color:#1750eb;&quot;&gt;48&lt;/span&gt;, &lt;span style=&quot;color:#1750eb;&quot;&gt;56&lt;/span&gt;&lt;span style=&quot;color:#0e4a8e;&quot;&gt;}&lt;/span&gt;;&lt;br&gt;&lt;span style=&quot;color:#0033b3;&quot;&gt;int &lt;/span&gt;&lt;span style=&quot;color:#000000;&quot;&gt;len &lt;/span&gt;= &lt;span style=&quot;color:#0033b3;&quot;&gt;sizeof&lt;/span&gt;&lt;span style=&quot;color:#3f9101;&quot;&gt;(&lt;/span&gt;&lt;span style=&quot;color:#000000;&quot;&gt;arr&lt;/span&gt;&lt;span style=&quot;color:#3f9101;&quot;&gt;) &lt;/span&gt;/ &lt;span style=&quot;color:#0033b3;&quot;&gt;sizeof&lt;/span&gt;&lt;span style=&quot;color:#3f9101;&quot;&gt;(&lt;/span&gt;&lt;span style=&quot;color:#000000;&quot;&gt;arr&lt;/span&gt;&lt;span style=&quot;color:#3f9101;&quot;&gt;[&lt;/span&gt;&lt;span style=&quot;color:#1750eb;&quot;&gt;0&lt;/span&gt;&lt;span style=&quot;color:#3f9101;&quot;&gt;])&lt;/span&gt;;&lt;/pre&gt;&lt;/div&gt;&lt;/pre&gt;&lt;/div&gt;" style="text;html=1;align=left;verticalAlign=middle;resizable=0;points=[];autosize=1;strokeColor=none;fillColor=none;" vertex="1" parent="1">
                    <mxGeometry x="360" y="420" width="520" height="80" as="geometry"/>
                </mxCell>
                <mxCell id="13" value="&lt;font style=&quot;font-size: 24px; color: rgb(255, 255, 255);&quot;&gt;66&lt;/font&gt;" style="rounded=1;whiteSpace=wrap;html=1;resizeHeight=0;strokeOpacity=100;fillOpacity=100;strokeColor=none;gradientColor=none;fillColor=#97D077;" vertex="1" parent="1">
                    <mxGeometry x="640" y="560" width="40" height="40" as="geometry"/>
                </mxCell>
                <mxCell id="14" value="&lt;font style=&quot;font-size: 24px; color: rgb(255, 255, 255);&quot;&gt;39&lt;/font&gt;" style="rounded=1;whiteSpace=wrap;html=1;resizeHeight=0;strokeOpacity=100;fillOpacity=100;strokeColor=none;gradientColor=none;fillColor=#97D077;" vertex="1" parent="1">
                    <mxGeometry x="680" y="560" width="40" height="40" as="geometry"/>
                </mxCell>
                <mxCell id="15" value="&lt;font style=&quot;font-size: 24px; color: rgb(255, 255, 255);&quot;&gt;48&lt;/font&gt;" style="rounded=1;whiteSpace=wrap;html=1;resizeHeight=0;strokeOpacity=100;fillOpacity=100;strokeColor=none;gradientColor=none;fillColor=#97D077;" vertex="1" parent="1">
                    <mxGeometry x="720" y="560" width="40" height="40" as="geometry"/>
                </mxCell>
                <mxCell id="16" value="&lt;font style=&quot;font-size: 24px; color: rgb(255, 255, 255);&quot;&gt;56&lt;/font&gt;" style="rounded=1;whiteSpace=wrap;html=1;resizeHeight=0;strokeOpacity=100;fillOpacity=100;strokeColor=none;gradientColor=none;fillColor=#97D077;" vertex="1" parent="1">
                    <mxGeometry x="760" y="560" width="40" height="40" as="geometry"/>
                </mxCell>
                <mxCell id="31" value="" style="endArrow=none;html=1;strokeColor=#FF0000;" edge="1" parent="1">
                    <mxGeometry width="50" height="50" relative="1" as="geometry">
                        <mxPoint x="600" y="630" as="sourcePoint"/>
                        <mxPoint x="600" y="530" as="targetPoint"/>
                    </mxGeometry>
                </mxCell>
                <mxCell id="60" style="edgeStyle=none;html=1;exitX=0.25;exitY=1;exitDx=0;exitDy=0;entryX=0.5;entryY=0;entryDx=0;entryDy=0;" edge="1" parent="1" source="32" target="47">
                    <mxGeometry relative="1" as="geometry"/>
                </mxCell>
                <mxCell id="61" style="edgeStyle=none;html=1;exitX=0.75;exitY=1;exitDx=0;exitDy=0;entryX=0.5;entryY=0;entryDx=0;entryDy=0;" edge="1" parent="1" source="32" target="54">
                    <mxGeometry relative="1" as="geometry"/>
                </mxCell>
                <mxCell id="32" value="" style="rounded=0;whiteSpace=wrap;html=1;fillColor=#CCE5FF;" vertex="1" parent="1">
                    <mxGeometry x="300" y="700" width="220" height="60" as="geometry"/>
                </mxCell>
                <mxCell id="33" value="&lt;font style=&quot;font-size: 24px; color: rgb(255, 255, 255);&quot;&gt;64&lt;/font&gt;" style="rounded=1;whiteSpace=wrap;html=1;resizeHeight=0;strokeOpacity=100;fillOpacity=100;strokeColor=none;gradientColor=none;fillColor=#97D077;" vertex="1" parent="1">
                    <mxGeometry x="310" y="710" width="40" height="40" as="geometry"/>
                </mxCell>
                <mxCell id="34" value="&lt;font style=&quot;font-size: 24px; color: rgb(255, 255, 255);&quot;&gt;34&lt;/font&gt;" style="rounded=1;whiteSpace=wrap;html=1;resizeHeight=0;strokeOpacity=100;fillOpacity=100;strokeColor=none;gradientColor=none;fillColor=#97D077;" vertex="1" parent="1">
                    <mxGeometry x="350" y="710" width="40" height="40" as="geometry"/>
                </mxCell>
                <mxCell id="35" value="&lt;font style=&quot;font-size: 24px; color: rgb(255, 255, 255);&quot;&gt;25&lt;/font&gt;" style="rounded=1;whiteSpace=wrap;html=1;resizeHeight=0;strokeOpacity=100;fillOpacity=100;strokeColor=none;gradientColor=none;fillColor=#97D077;" vertex="1" parent="1">
                    <mxGeometry x="390" y="710" width="40" height="40" as="geometry"/>
                </mxCell>
                <mxCell id="36" value="&lt;font style=&quot;font-size: 24px; color: rgb(255, 255, 255);&quot;&gt;12&lt;/font&gt;" style="rounded=1;whiteSpace=wrap;html=1;resizeHeight=0;strokeOpacity=100;fillOpacity=100;strokeColor=none;gradientColor=none;fillColor=#97D077;" vertex="1" parent="1">
                    <mxGeometry x="430" y="710" width="40" height="40" as="geometry"/>
                </mxCell>
                <mxCell id="37" value="&lt;font style=&quot;font-size: 24px; color: rgb(255, 255, 255);&quot;&gt;22&lt;/font&gt;" style="rounded=1;whiteSpace=wrap;html=1;resizeHeight=0;strokeOpacity=100;fillOpacity=100;strokeColor=none;gradientColor=none;fillColor=#97D077;" vertex="1" parent="1">
                    <mxGeometry x="470" y="710" width="40" height="40" as="geometry"/>
                </mxCell>
                <mxCell id="76" style="edgeStyle=none;html=1;exitX=0.25;exitY=1;exitDx=0;exitDy=0;entryX=0.25;entryY=0;entryDx=0;entryDy=0;" edge="1" parent="1" source="39" target="62">
                    <mxGeometry relative="1" as="geometry"/>
                </mxCell>
                <mxCell id="77" style="edgeStyle=none;html=1;exitX=0.75;exitY=1;exitDx=0;exitDy=0;entryX=0.25;entryY=0;entryDx=0;entryDy=0;" edge="1" parent="1" source="39" target="69">
                    <mxGeometry relative="1" as="geometry"/>
                </mxCell>
                <mxCell id="39" value="" style="rounded=0;whiteSpace=wrap;html=1;fillColor=#CCE5FF;" vertex="1" parent="1">
                    <mxGeometry x="600" y="700" width="260" height="60" as="geometry"/>
                </mxCell>
                <mxCell id="40" value="&lt;font style=&quot;font-size: 24px; color: rgb(255, 255, 255);&quot;&gt;90&lt;/font&gt;" style="rounded=1;whiteSpace=wrap;html=1;resizeHeight=0;strokeOpacity=100;fillOpacity=100;strokeColor=none;gradientColor=none;fillColor=#97D077;" vertex="1" parent="1">
                    <mxGeometry x="650" y="710" width="40" height="40" as="geometry"/>
                </mxCell>
                <mxCell id="41" value="&lt;font style=&quot;font-size: 24px; color: rgb(255, 255, 255);&quot;&gt;66&lt;/font&gt;" style="rounded=1;whiteSpace=wrap;html=1;resizeHeight=0;strokeOpacity=100;fillOpacity=100;strokeColor=none;gradientColor=none;fillColor=#97D077;" vertex="1" parent="1">
                    <mxGeometry x="690" y="710" width="40" height="40" as="geometry"/>
                </mxCell>
                <mxCell id="42" value="&lt;font style=&quot;font-size: 24px; color: rgb(255, 255, 255);&quot;&gt;39&lt;/font&gt;" style="rounded=1;whiteSpace=wrap;html=1;resizeHeight=0;strokeOpacity=100;fillOpacity=100;strokeColor=none;gradientColor=none;fillColor=#97D077;" vertex="1" parent="1">
                    <mxGeometry x="730" y="710" width="40" height="40" as="geometry"/>
                </mxCell>
                <mxCell id="43" value="&lt;font style=&quot;font-size: 24px; color: rgb(255, 255, 255);&quot;&gt;48&lt;/font&gt;" style="rounded=1;whiteSpace=wrap;html=1;resizeHeight=0;strokeOpacity=100;fillOpacity=100;strokeColor=none;gradientColor=none;fillColor=#97D077;" vertex="1" parent="1">
                    <mxGeometry x="770" y="710" width="40" height="40" as="geometry"/>
                </mxCell>
                <mxCell id="44" value="&lt;font style=&quot;font-size: 24px; color: rgb(255, 255, 255);&quot;&gt;56&lt;/font&gt;" style="rounded=1;whiteSpace=wrap;html=1;resizeHeight=0;strokeOpacity=100;fillOpacity=100;strokeColor=none;gradientColor=none;fillColor=#97D077;" vertex="1" parent="1">
                    <mxGeometry x="810" y="710" width="40" height="40" as="geometry"/>
                </mxCell>
                <mxCell id="84" style="edgeStyle=none;html=1;exitX=0.25;exitY=1;exitDx=0;exitDy=0;entryX=0.5;entryY=0;entryDx=0;entryDy=0;" edge="1" parent="1" source="47" target="78">
                    <mxGeometry relative="1" as="geometry"/>
                </mxCell>
                <mxCell id="85" style="edgeStyle=none;html=1;exitX=0.75;exitY=1;exitDx=0;exitDy=0;entryX=0.5;entryY=0;entryDx=0;entryDy=0;" edge="1" parent="1" source="47" target="82">
                    <mxGeometry relative="1" as="geometry"/>
                </mxCell>
                <mxCell id="47" value="" style="rounded=0;whiteSpace=wrap;html=1;fillColor=#CCE5FF;" vertex="1" parent="1">
                    <mxGeometry x="240" y="820" width="102.5" height="60" as="geometry"/>
                </mxCell>
                <mxCell id="48" value="&lt;font style=&quot;font-size: 24px; color: rgb(255, 255, 255);&quot;&gt;64&lt;/font&gt;" style="rounded=1;whiteSpace=wrap;html=1;resizeHeight=0;strokeOpacity=100;fillOpacity=100;strokeColor=none;gradientColor=none;fillColor=#97D077;" vertex="1" parent="1">
                    <mxGeometry x="251.5" y="830" width="40" height="40" as="geometry"/>
                </mxCell>
                <mxCell id="49" value="&lt;font style=&quot;font-size: 24px; color: rgb(255, 255, 255);&quot;&gt;34&lt;/font&gt;" style="rounded=1;whiteSpace=wrap;html=1;resizeHeight=0;strokeOpacity=100;fillOpacity=100;strokeColor=none;gradientColor=none;fillColor=#97D077;" vertex="1" parent="1">
                    <mxGeometry x="291.5" y="830" width="40" height="40" as="geometry"/>
                </mxCell>
                <mxCell id="92" style="edgeStyle=none;html=1;exitX=0.25;exitY=1;exitDx=0;exitDy=0;entryX=0.5;entryY=0;entryDx=0;entryDy=0;" edge="1" parent="1" source="54" target="86">
                    <mxGeometry relative="1" as="geometry"/>
                </mxCell>
                <mxCell id="93" style="edgeStyle=none;html=1;exitX=0.75;exitY=1;exitDx=0;exitDy=0;entryX=0.5;entryY=0;entryDx=0;entryDy=0;" edge="1" parent="1" source="54">
                    <mxGeometry relative="1" as="geometry">
                        <mxPoint x="530" y="940" as="targetPoint"/>
                    </mxGeometry>
                </mxCell>
                <mxCell id="54" value="" style="rounded=0;whiteSpace=wrap;html=1;fillColor=#CCE5FF;" vertex="1" parent="1">
                    <mxGeometry x="400.5" y="820" width="150" height="60" as="geometry"/>
                </mxCell>
                <mxCell id="55" value="&lt;font style=&quot;font-size: 24px; color: rgb(255, 255, 255);&quot;&gt;12&lt;/font&gt;" style="rounded=1;whiteSpace=wrap;html=1;resizeHeight=0;strokeOpacity=100;fillOpacity=100;strokeColor=none;gradientColor=none;fillColor=#97D077;" vertex="1" parent="1">
                    <mxGeometry x="458" y="830" width="40" height="40" as="geometry"/>
                </mxCell>
                <mxCell id="56" value="&lt;font style=&quot;font-size: 24px; color: rgb(255, 255, 255);&quot;&gt;22&lt;/font&gt;" style="rounded=1;whiteSpace=wrap;html=1;resizeHeight=0;strokeOpacity=100;fillOpacity=100;strokeColor=none;gradientColor=none;fillColor=#97D077;" vertex="1" parent="1">
                    <mxGeometry x="498" y="830" width="40" height="40" as="geometry"/>
                </mxCell>
                <mxCell id="58" value="&lt;font style=&quot;font-size: 24px; color: rgb(255, 255, 255);&quot;&gt;11&lt;/font&gt;" style="rounded=1;whiteSpace=wrap;html=1;resizeHeight=0;strokeOpacity=100;fillOpacity=100;strokeColor=none;gradientColor=none;fillColor=#97D077;" vertex="1" parent="1">
                    <mxGeometry x="610" y="710" width="40" height="40" as="geometry"/>
                </mxCell>
                <mxCell id="50" value="&lt;font style=&quot;font-size: 24px; color: rgb(255, 255, 255);&quot;&gt;25&lt;/font&gt;" style="rounded=1;whiteSpace=wrap;html=1;resizeHeight=0;strokeOpacity=100;fillOpacity=100;strokeColor=none;gradientColor=none;fillColor=#97D077;" vertex="1" parent="1">
                    <mxGeometry x="418" y="830" width="40" height="40" as="geometry"/>
                </mxCell>
                <mxCell id="110" style="edgeStyle=none;html=1;exitX=0.25;exitY=1;exitDx=0;exitDy=0;entryX=0.5;entryY=0;entryDx=0;entryDy=0;" edge="1" parent="1" source="62" target="97">
                    <mxGeometry relative="1" as="geometry"/>
                </mxCell>
                <mxCell id="111" style="edgeStyle=none;html=1;exitX=0.75;exitY=1;exitDx=0;exitDy=0;entryX=0.5;entryY=0;entryDx=0;entryDy=0;" edge="1" parent="1" source="62" target="101">
                    <mxGeometry relative="1" as="geometry"/>
                </mxCell>
                <mxCell id="62" value="" style="rounded=0;whiteSpace=wrap;html=1;fillColor=#CCE5FF;" vertex="1" parent="1">
                    <mxGeometry x="600" y="820" width="140" height="60" as="geometry"/>
                </mxCell>
                <mxCell id="63" value="&lt;font style=&quot;font-size: 24px; color: rgb(255, 255, 255);&quot;&gt;90&lt;/font&gt;" style="rounded=1;whiteSpace=wrap;html=1;resizeHeight=0;strokeOpacity=100;fillOpacity=100;strokeColor=none;gradientColor=none;fillColor=#97D077;" vertex="1" parent="1">
                    <mxGeometry x="650" y="830" width="40" height="40" as="geometry"/>
                </mxCell>
                <mxCell id="64" value="&lt;font style=&quot;font-size: 24px; color: rgb(255, 255, 255);&quot;&gt;66&lt;/font&gt;" style="rounded=1;whiteSpace=wrap;html=1;resizeHeight=0;strokeOpacity=100;fillOpacity=100;strokeColor=none;gradientColor=none;fillColor=#97D077;" vertex="1" parent="1">
                    <mxGeometry x="690" y="830" width="40" height="40" as="geometry"/>
                </mxCell>
                <mxCell id="68" value="&lt;font style=&quot;font-size: 24px; color: rgb(255, 255, 255);&quot;&gt;11&lt;/font&gt;" style="rounded=1;whiteSpace=wrap;html=1;resizeHeight=0;strokeOpacity=100;fillOpacity=100;strokeColor=none;gradientColor=none;fillColor=#97D077;" vertex="1" parent="1">
                    <mxGeometry x="610" y="830" width="40" height="40" as="geometry"/>
                </mxCell>
                <mxCell id="112" style="edgeStyle=none;html=1;exitX=0.25;exitY=1;exitDx=0;exitDy=0;entryX=0.5;entryY=0;entryDx=0;entryDy=0;" edge="1" parent="1" source="69" target="105">
                    <mxGeometry relative="1" as="geometry"/>
                </mxCell>
                <mxCell id="113" style="edgeStyle=none;html=1;exitX=0.75;exitY=1;exitDx=0;exitDy=0;entryX=0.5;entryY=0;entryDx=0;entryDy=0;" edge="1" parent="1" source="69" target="107">
                    <mxGeometry relative="1" as="geometry"/>
                </mxCell>
                <mxCell id="69" value="" style="rounded=0;whiteSpace=wrap;html=1;fillColor=#CCE5FF;" vertex="1" parent="1">
                    <mxGeometry x="800" y="820" width="140" height="60" as="geometry"/>
                </mxCell>
                <mxCell id="72" value="&lt;font style=&quot;font-size: 24px; color: rgb(255, 255, 255);&quot;&gt;39&lt;/font&gt;" style="rounded=1;whiteSpace=wrap;html=1;resizeHeight=0;strokeOpacity=100;fillOpacity=100;strokeColor=none;gradientColor=none;fillColor=#97D077;" vertex="1" parent="1">
                    <mxGeometry x="810" y="830" width="40" height="40" as="geometry"/>
                </mxCell>
                <mxCell id="73" value="&lt;font style=&quot;font-size: 24px; color: rgb(255, 255, 255);&quot;&gt;48&lt;/font&gt;" style="rounded=1;whiteSpace=wrap;html=1;resizeHeight=0;strokeOpacity=100;fillOpacity=100;strokeColor=none;gradientColor=none;fillColor=#97D077;" vertex="1" parent="1">
                    <mxGeometry x="850" y="830" width="40" height="40" as="geometry"/>
                </mxCell>
                <mxCell id="74" value="&lt;font style=&quot;font-size: 24px; color: rgb(255, 255, 255);&quot;&gt;56&lt;/font&gt;" style="rounded=1;whiteSpace=wrap;html=1;resizeHeight=0;strokeOpacity=100;fillOpacity=100;strokeColor=none;gradientColor=none;fillColor=#97D077;" vertex="1" parent="1">
                    <mxGeometry x="890" y="830" width="40" height="40" as="geometry"/>
                </mxCell>
                <mxCell id="133" style="edgeStyle=none;html=1;exitX=0.5;exitY=1;exitDx=0;exitDy=0;entryX=0.5;entryY=0;entryDx=0;entryDy=0;" edge="1" parent="1" source="78" target="114">
                    <mxGeometry relative="1" as="geometry"/>
                </mxCell>
                <mxCell id="78" value="" style="rounded=0;whiteSpace=wrap;html=1;fillColor=#CCE5FF;" vertex="1" parent="1">
                    <mxGeometry x="200" y="940" width="60" height="60" as="geometry"/>
                </mxCell>
                <mxCell id="79" value="&lt;font style=&quot;font-size: 24px; color: rgb(255, 255, 255);&quot;&gt;64&lt;/font&gt;" style="rounded=1;whiteSpace=wrap;html=1;resizeHeight=0;strokeOpacity=100;fillOpacity=100;strokeColor=none;gradientColor=none;fillColor=#97D077;" vertex="1" parent="1">
                    <mxGeometry x="210" y="950" width="40" height="40" as="geometry"/>
                </mxCell>
                <mxCell id="134" style="edgeStyle=none;html=1;exitX=0.5;exitY=1;exitDx=0;exitDy=0;entryX=0.5;entryY=0;entryDx=0;entryDy=0;" edge="1" parent="1" source="82" target="116">
                    <mxGeometry relative="1" as="geometry"/>
                </mxCell>
                <mxCell id="82" value="" style="rounded=0;whiteSpace=wrap;html=1;fillColor=#CCE5FF;" vertex="1" parent="1">
                    <mxGeometry x="280" y="940" width="60" height="60" as="geometry"/>
                </mxCell>
                <mxCell id="83" value="&lt;font style=&quot;font-size: 24px; color: rgb(255, 255, 255);&quot;&gt;34&lt;/font&gt;" style="rounded=1;whiteSpace=wrap;html=1;resizeHeight=0;strokeOpacity=100;fillOpacity=100;strokeColor=none;gradientColor=none;fillColor=#97D077;" vertex="1" parent="1">
                    <mxGeometry x="290" y="950" width="40" height="40" as="geometry"/>
                </mxCell>
                <mxCell id="135" style="edgeStyle=none;html=1;exitX=0.5;exitY=1;exitDx=0;exitDy=0;entryX=0.5;entryY=0;entryDx=0;entryDy=0;" edge="1" parent="1" source="86" target="118">
                    <mxGeometry relative="1" as="geometry"/>
                </mxCell>
                <mxCell id="86" value="" style="rounded=0;whiteSpace=wrap;html=1;fillColor=#CCE5FF;" vertex="1" parent="1">
                    <mxGeometry x="380" y="940" width="60" height="60" as="geometry"/>
                </mxCell>
                <mxCell id="89" value="&lt;font style=&quot;font-size: 24px; color: rgb(255, 255, 255);&quot;&gt;25&lt;/font&gt;" style="rounded=1;whiteSpace=wrap;html=1;resizeHeight=0;strokeOpacity=100;fillOpacity=100;strokeColor=none;gradientColor=none;fillColor=#97D077;" vertex="1" parent="1">
                    <mxGeometry x="390" y="950" width="40" height="40" as="geometry"/>
                </mxCell>
                <mxCell id="148" style="edgeStyle=none;html=1;exitX=0.25;exitY=1;exitDx=0;exitDy=0;entryX=0.5;entryY=0;entryDx=0;entryDy=0;" edge="1" parent="1" source="94" target="136">
                    <mxGeometry relative="1" as="geometry"/>
                </mxCell>
                <mxCell id="149" style="edgeStyle=none;html=1;exitX=0.75;exitY=1;exitDx=0;exitDy=0;entryX=0.5;entryY=0;entryDx=0;entryDy=0;" edge="1" parent="1" source="94" target="138">
                    <mxGeometry relative="1" as="geometry"/>
                </mxCell>
                <mxCell id="94" value="" style="rounded=0;whiteSpace=wrap;html=1;fillColor=#CCE5FF;" vertex="1" parent="1">
                    <mxGeometry x="480" y="940" width="110" height="60" as="geometry"/>
                </mxCell>
                <mxCell id="95" value="&lt;font style=&quot;font-size: 24px; color: rgb(255, 255, 255);&quot;&gt;22&lt;/font&gt;" style="rounded=1;whiteSpace=wrap;html=1;resizeHeight=0;strokeOpacity=100;fillOpacity=100;strokeColor=none;gradientColor=none;fillColor=#97D077;" vertex="1" parent="1">
                    <mxGeometry x="534.5" y="950" width="40" height="40" as="geometry"/>
                </mxCell>
                <mxCell id="96" value="&lt;font style=&quot;font-size: 24px; color: rgb(255, 255, 255);&quot;&gt;12&lt;/font&gt;" style="rounded=1;whiteSpace=wrap;html=1;resizeHeight=0;strokeOpacity=100;fillOpacity=100;strokeColor=none;gradientColor=none;fillColor=#97D077;" vertex="1" parent="1">
                    <mxGeometry x="494.5" y="950" width="40" height="40" as="geometry"/>
                </mxCell>
                <mxCell id="150" style="edgeStyle=none;html=1;exitX=0.5;exitY=1;exitDx=0;exitDy=0;entryX=0.5;entryY=0;entryDx=0;entryDy=0;" edge="1" parent="1" source="97" target="123">
                    <mxGeometry relative="1" as="geometry"/>
                </mxCell>
                <mxCell id="97" value="" style="rounded=0;whiteSpace=wrap;html=1;fillColor=#CCE5FF;" vertex="1" parent="1">
                    <mxGeometry x="600" y="940" width="60" height="60" as="geometry"/>
                </mxCell>
                <mxCell id="100" value="&lt;font style=&quot;font-size: 24px; color: rgb(255, 255, 255);&quot;&gt;11&lt;/font&gt;" style="rounded=1;whiteSpace=wrap;html=1;resizeHeight=0;strokeOpacity=100;fillOpacity=100;strokeColor=none;gradientColor=none;fillColor=#97D077;" vertex="1" parent="1">
                    <mxGeometry x="610" y="950" width="40" height="40" as="geometry"/>
                </mxCell>
                <mxCell id="152" style="edgeStyle=none;html=1;exitX=0.5;exitY=1;exitDx=0;exitDy=0;entryX=0.5;entryY=0;entryDx=0;entryDy=0;" edge="1" parent="1" source="101" target="140">
                    <mxGeometry relative="1" as="geometry"/>
                </mxCell>
                <mxCell id="153" style="edgeStyle=none;html=1;exitX=0.75;exitY=1;exitDx=0;exitDy=0;entryX=0.5;entryY=0;entryDx=0;entryDy=0;" edge="1" parent="1" source="101" target="144">
                    <mxGeometry relative="1" as="geometry"/>
                </mxCell>
                <mxCell id="101" value="" style="rounded=0;whiteSpace=wrap;html=1;fillColor=#CCE5FF;" vertex="1" parent="1">
                    <mxGeometry x="680" y="940" width="100" height="60" as="geometry"/>
                </mxCell>
                <mxCell id="102" value="&lt;font style=&quot;font-size: 24px; color: rgb(255, 255, 255);&quot;&gt;90&lt;/font&gt;" style="rounded=1;whiteSpace=wrap;html=1;resizeHeight=0;strokeOpacity=100;fillOpacity=100;strokeColor=none;gradientColor=none;fillColor=#97D077;" vertex="1" parent="1">
                    <mxGeometry x="690" y="950" width="40" height="40" as="geometry"/>
                </mxCell>
                <mxCell id="103" value="&lt;font style=&quot;font-size: 24px; color: rgb(255, 255, 255);&quot;&gt;66&lt;/font&gt;" style="rounded=1;whiteSpace=wrap;html=1;resizeHeight=0;strokeOpacity=100;fillOpacity=100;strokeColor=none;gradientColor=none;fillColor=#97D077;" vertex="1" parent="1">
                    <mxGeometry x="730" y="950" width="40" height="40" as="geometry"/>
                </mxCell>
                <mxCell id="154" style="edgeStyle=none;html=1;exitX=0.5;exitY=1;exitDx=0;exitDy=0;entryX=0.5;entryY=0;entryDx=0;entryDy=0;" edge="1" parent="1" source="105" target="146">
                    <mxGeometry relative="1" as="geometry"/>
                </mxCell>
                <mxCell id="105" value="" style="rounded=0;whiteSpace=wrap;html=1;fillColor=#CCE5FF;" vertex="1" parent="1">
                    <mxGeometry x="800" y="940" width="60" height="60" as="geometry"/>
                </mxCell>
                <mxCell id="106" value="&lt;font style=&quot;font-size: 24px; color: rgb(255, 255, 255);&quot;&gt;39&lt;/font&gt;" style="rounded=1;whiteSpace=wrap;html=1;resizeHeight=0;strokeOpacity=100;fillOpacity=100;strokeColor=none;gradientColor=none;fillColor=#97D077;" vertex="1" parent="1">
                    <mxGeometry x="810" y="950" width="40" height="40" as="geometry"/>
                </mxCell>
                <mxCell id="155" style="edgeStyle=none;html=1;exitX=0.25;exitY=1;exitDx=0;exitDy=0;entryX=0.5;entryY=0;entryDx=0;entryDy=0;" edge="1" parent="1" source="107" target="128">
                    <mxGeometry relative="1" as="geometry"/>
                </mxCell>
                <mxCell id="156" style="edgeStyle=none;html=1;exitX=0.75;exitY=1;exitDx=0;exitDy=0;entryX=0.5;entryY=0;entryDx=0;entryDy=0;" edge="1" parent="1" source="107" target="142">
                    <mxGeometry relative="1" as="geometry"/>
                </mxCell>
                <mxCell id="107" value="" style="rounded=0;whiteSpace=wrap;html=1;fillColor=#CCE5FF;" vertex="1" parent="1">
                    <mxGeometry x="880" y="940" width="100" height="60" as="geometry"/>
                </mxCell>
                <mxCell id="108" value="&lt;font style=&quot;font-size: 24px; color: rgb(255, 255, 255);&quot;&gt;48&lt;/font&gt;" style="rounded=1;whiteSpace=wrap;html=1;resizeHeight=0;strokeOpacity=100;fillOpacity=100;strokeColor=none;gradientColor=none;fillColor=#97D077;" vertex="1" parent="1">
                    <mxGeometry x="890" y="950" width="40" height="40" as="geometry"/>
                </mxCell>
                <mxCell id="109" value="&lt;font style=&quot;font-size: 24px; color: rgb(255, 255, 255);&quot;&gt;56&lt;/font&gt;" style="rounded=1;whiteSpace=wrap;html=1;resizeHeight=0;strokeOpacity=100;fillOpacity=100;strokeColor=none;gradientColor=none;fillColor=#97D077;" vertex="1" parent="1">
                    <mxGeometry x="930" y="950" width="40" height="40" as="geometry"/>
                </mxCell>
                <mxCell id="170" style="edgeStyle=none;html=1;exitX=0.5;exitY=1;exitDx=0;exitDy=0;entryX=0.25;entryY=0;entryDx=0;entryDy=0;" edge="1" parent="1" source="114" target="167">
                    <mxGeometry relative="1" as="geometry"/>
                </mxCell>
                <mxCell id="114" value="" style="rounded=0;whiteSpace=wrap;html=1;fillColor=#CCE5FF;" vertex="1" parent="1">
                    <mxGeometry x="200" y="1060" width="60" height="60" as="geometry"/>
                </mxCell>
                <mxCell id="115" value="&lt;font style=&quot;font-size: 24px; color: rgb(255, 255, 255);&quot;&gt;64&lt;/font&gt;" style="rounded=1;whiteSpace=wrap;html=1;resizeHeight=0;strokeOpacity=100;fillOpacity=100;strokeColor=none;gradientColor=none;fillColor=#9999FF;" vertex="1" parent="1">
                    <mxGeometry x="210" y="1070" width="40" height="40" as="geometry"/>
                </mxCell>
                <mxCell id="171" style="edgeStyle=none;html=1;exitX=0.5;exitY=1;exitDx=0;exitDy=0;entryX=0.75;entryY=0;entryDx=0;entryDy=0;" edge="1" parent="1" source="116" target="167">
                    <mxGeometry relative="1" as="geometry"/>
                </mxCell>
                <mxCell id="116" value="" style="rounded=0;whiteSpace=wrap;html=1;fillColor=#CCE5FF;" vertex="1" parent="1">
                    <mxGeometry x="280" y="1060" width="60" height="60" as="geometry"/>
                </mxCell>
                <mxCell id="117" value="&lt;font style=&quot;font-size: 24px; color: rgb(255, 255, 255);&quot;&gt;34&lt;/font&gt;" style="rounded=1;whiteSpace=wrap;html=1;resizeHeight=0;strokeOpacity=100;fillOpacity=100;strokeColor=none;gradientColor=none;fillColor=#9999FF;" vertex="1" parent="1">
                    <mxGeometry x="290" y="1070" width="40" height="40" as="geometry"/>
                </mxCell>
                <mxCell id="186" style="edgeStyle=none;html=1;exitX=0.5;exitY=1;exitDx=0;exitDy=0;entryX=0.75;entryY=0;entryDx=0;entryDy=0;" edge="1" parent="1" source="118" target="253">
                    <mxGeometry relative="1" as="geometry">
                        <mxPoint x="417.5" y="1180" as="targetPoint"/>
                    </mxGeometry>
                </mxCell>
                <mxCell id="118" value="" style="rounded=0;whiteSpace=wrap;html=1;fillColor=#CCE5FF;" vertex="1" parent="1">
                    <mxGeometry x="380" y="1060" width="60" height="60" as="geometry"/>
                </mxCell>
                <mxCell id="119" value="&lt;font style=&quot;font-size: 24px; color: rgb(255, 255, 255);&quot;&gt;25&lt;/font&gt;" style="rounded=1;whiteSpace=wrap;html=1;resizeHeight=0;strokeOpacity=100;fillOpacity=100;strokeColor=none;gradientColor=none;fillColor=#9999FF;" vertex="1" parent="1">
                    <mxGeometry x="390" y="1070" width="40" height="40" as="geometry"/>
                </mxCell>
                <mxCell id="189" style="edgeStyle=none;html=1;exitX=0.5;exitY=1;exitDx=0;exitDy=0;entryX=0.714;entryY=0;entryDx=0;entryDy=0;entryPerimeter=0;" edge="1" parent="1" source="123" target="262">
                    <mxGeometry relative="1" as="geometry">
                        <mxPoint x="633" y="1180" as="targetPoint"/>
                    </mxGeometry>
                </mxCell>
                <mxCell id="123" value="" style="rounded=0;whiteSpace=wrap;html=1;fillColor=#CCE5FF;" vertex="1" parent="1">
                    <mxGeometry x="600" y="1060" width="60" height="60" as="geometry"/>
                </mxCell>
                <mxCell id="124" value="&lt;font style=&quot;font-size: 24px; color: rgb(255, 255, 255);&quot;&gt;11&lt;/font&gt;" style="rounded=1;whiteSpace=wrap;html=1;resizeHeight=0;strokeOpacity=100;fillOpacity=100;strokeColor=none;gradientColor=none;fillColor=#9999FF;" vertex="1" parent="1">
                    <mxGeometry x="610" y="1070" width="40" height="40" as="geometry"/>
                </mxCell>
                <mxCell id="193" style="edgeStyle=none;html=1;exitX=0.5;exitY=1;exitDx=0;exitDy=0;entryX=0.25;entryY=0;entryDx=0;entryDy=0;" edge="1" parent="1" source="128" target="270">
                    <mxGeometry relative="1" as="geometry">
                        <mxPoint x="922.5" y="1180" as="targetPoint"/>
                    </mxGeometry>
                </mxCell>
                <mxCell id="128" value="" style="rounded=0;whiteSpace=wrap;html=1;fillColor=#CCE5FF;" vertex="1" parent="1">
                    <mxGeometry x="890" y="1060" width="60" height="60" as="geometry"/>
                </mxCell>
                <mxCell id="129" value="&lt;font style=&quot;font-size: 24px; color: rgb(255, 255, 255);&quot;&gt;48&lt;/font&gt;" style="rounded=1;whiteSpace=wrap;html=1;resizeHeight=0;strokeOpacity=100;fillOpacity=100;strokeColor=none;gradientColor=none;fillColor=#9999FF;" vertex="1" parent="1">
                    <mxGeometry x="900" y="1070" width="40" height="40" as="geometry"/>
                </mxCell>
                <mxCell id="187" style="edgeStyle=none;html=1;exitX=0.5;exitY=1;exitDx=0;exitDy=0;entryX=0.25;entryY=0;entryDx=0;entryDy=0;" edge="1" parent="1" source="136" target="259">
                    <mxGeometry relative="1" as="geometry">
                        <mxPoint x="472.5" y="1180" as="targetPoint"/>
                    </mxGeometry>
                </mxCell>
                <mxCell id="136" value="" style="rounded=0;whiteSpace=wrap;html=1;fillColor=#CCE5FF;" vertex="1" parent="1">
                    <mxGeometry x="460" y="1060" width="60" height="60" as="geometry"/>
                </mxCell>
                <mxCell id="137" value="&lt;font style=&quot;font-size: 24px; color: rgb(255, 255, 255);&quot;&gt;12&lt;/font&gt;" style="rounded=1;whiteSpace=wrap;html=1;resizeHeight=0;strokeOpacity=100;fillOpacity=100;strokeColor=none;gradientColor=none;fillColor=#9999FF;" vertex="1" parent="1">
                    <mxGeometry x="470" y="1070" width="40" height="40" as="geometry"/>
                </mxCell>
                <mxCell id="188" style="edgeStyle=none;html=1;exitX=0.5;exitY=1;exitDx=0;exitDy=0;entryX=0.75;entryY=0;entryDx=0;entryDy=0;" edge="1" parent="1" source="138" target="259">
                    <mxGeometry relative="1" as="geometry">
                        <mxPoint x="578" y="1180" as="targetPoint"/>
                    </mxGeometry>
                </mxCell>
                <mxCell id="138" value="" style="rounded=0;whiteSpace=wrap;html=1;fillColor=#CCE5FF;" vertex="1" parent="1">
                    <mxGeometry x="530" y="1060" width="60" height="60" as="geometry"/>
                </mxCell>
                <mxCell id="139" value="&lt;font style=&quot;font-size: 24px; color: rgb(255, 255, 255);&quot;&gt;22&lt;/font&gt;" style="rounded=1;whiteSpace=wrap;html=1;resizeHeight=0;strokeOpacity=100;fillOpacity=100;strokeColor=none;gradientColor=none;fillColor=#9999FF;" vertex="1" parent="1">
                    <mxGeometry x="540" y="1070" width="40" height="40" as="geometry"/>
                </mxCell>
                <mxCell id="190" style="edgeStyle=none;html=1;exitX=0.5;exitY=1;exitDx=0;exitDy=0;entryX=0.25;entryY=0;entryDx=0;entryDy=0;" edge="1" parent="1" source="140" target="267">
                    <mxGeometry relative="1" as="geometry">
                        <mxPoint x="727.5" y="1180" as="targetPoint"/>
                    </mxGeometry>
                </mxCell>
                <mxCell id="140" value="" style="rounded=0;whiteSpace=wrap;html=1;fillColor=#CCE5FF;" vertex="1" parent="1">
                    <mxGeometry x="680" y="1060" width="60" height="60" as="geometry"/>
                </mxCell>
                <mxCell id="141" value="&lt;font style=&quot;font-size: 24px; color: rgb(255, 255, 255);&quot;&gt;90&lt;/font&gt;" style="rounded=1;whiteSpace=wrap;html=1;resizeHeight=0;strokeOpacity=100;fillOpacity=100;strokeColor=none;gradientColor=none;fillColor=#9999FF;" vertex="1" parent="1">
                    <mxGeometry x="690" y="1070" width="40" height="40" as="geometry"/>
                </mxCell>
                <mxCell id="194" style="edgeStyle=none;html=1;exitX=0.5;exitY=1;exitDx=0;exitDy=0;entryX=0.75;entryY=0;entryDx=0;entryDy=0;" edge="1" parent="1" source="142" target="270">
                    <mxGeometry relative="1" as="geometry">
                        <mxPoint x="1000" y="1180" as="targetPoint"/>
                    </mxGeometry>
                </mxCell>
                <mxCell id="142" value="" style="rounded=0;whiteSpace=wrap;html=1;fillColor=#CCE5FF;" vertex="1" parent="1">
                    <mxGeometry x="960" y="1060" width="60" height="60" as="geometry"/>
                </mxCell>
                <mxCell id="143" value="&lt;font style=&quot;font-size: 24px; color: rgb(255, 255, 255);&quot;&gt;56&lt;/font&gt;" style="rounded=1;whiteSpace=wrap;html=1;resizeHeight=0;strokeOpacity=100;fillOpacity=100;strokeColor=none;gradientColor=none;fillColor=#9999FF;" vertex="1" parent="1">
                    <mxGeometry x="970" y="1070" width="40" height="40" as="geometry"/>
                </mxCell>
                <mxCell id="144" value="" style="rounded=0;whiteSpace=wrap;html=1;fillColor=#CCE5FF;" vertex="1" parent="1">
                    <mxGeometry x="750" y="1060" width="60" height="60" as="geometry"/>
                </mxCell>
                <mxCell id="145" value="&lt;font style=&quot;font-size: 24px; color: rgb(255, 255, 255);&quot;&gt;66&lt;/font&gt;" style="rounded=1;whiteSpace=wrap;html=1;resizeHeight=0;strokeOpacity=100;fillOpacity=100;strokeColor=none;gradientColor=none;fillColor=#9999FF;" vertex="1" parent="1">
                    <mxGeometry x="760" y="1070" width="40" height="40" as="geometry"/>
                </mxCell>
                <mxCell id="192" style="edgeStyle=none;html=1;exitX=0.5;exitY=1;exitDx=0;exitDy=0;entryX=0.75;entryY=0;entryDx=0;entryDy=0;" edge="1" parent="1" source="146" target="273">
                    <mxGeometry relative="1" as="geometry">
                        <mxPoint x="830" y="1290" as="targetPoint"/>
                    </mxGeometry>
                </mxCell>
                <mxCell id="146" value="" style="rounded=0;whiteSpace=wrap;html=1;fillColor=#CCE5FF;" vertex="1" parent="1">
                    <mxGeometry x="820" y="1060" width="60" height="60" as="geometry"/>
                </mxCell>
                <mxCell id="147" value="&lt;font style=&quot;font-size: 24px; color: rgb(255, 255, 255);&quot;&gt;39&lt;/font&gt;" style="rounded=1;whiteSpace=wrap;html=1;resizeHeight=0;strokeOpacity=100;fillOpacity=100;strokeColor=none;gradientColor=none;fillColor=#9999FF;" vertex="1" parent="1">
                    <mxGeometry x="830" y="1070" width="40" height="40" as="geometry"/>
                </mxCell>
                <mxCell id="157" value="" style="endArrow=none;html=1;strokeColor=#FF0000;" edge="1" parent="1">
                    <mxGeometry width="50" height="50" relative="1" as="geometry">
                        <mxPoint x="390" y="780" as="sourcePoint"/>
                        <mxPoint x="390" y="680" as="targetPoint"/>
                    </mxGeometry>
                </mxCell>
                <mxCell id="158" value="" style="endArrow=none;html=1;strokeColor=#FF0000;" edge="1" parent="1">
                    <mxGeometry width="50" height="50" relative="1" as="geometry">
                        <mxPoint x="730" y="780" as="sourcePoint"/>
                        <mxPoint x="730" y="680" as="targetPoint"/>
                    </mxGeometry>
                </mxCell>
                <mxCell id="159" value="" style="endArrow=none;html=1;strokeColor=#FF0000;" edge="1" parent="1">
                    <mxGeometry width="50" height="50" relative="1" as="geometry">
                        <mxPoint x="460" y="900" as="sourcePoint"/>
                        <mxPoint x="460" y="800" as="targetPoint"/>
                    </mxGeometry>
                </mxCell>
                <mxCell id="160" value="" style="endArrow=none;html=1;strokeColor=#FF0000;" edge="1" parent="1">
                    <mxGeometry width="50" height="50" relative="1" as="geometry">
                        <mxPoint x="650" y="900" as="sourcePoint"/>
                        <mxPoint x="650" y="800" as="targetPoint"/>
                    </mxGeometry>
                </mxCell>
                <mxCell id="161" value="" style="endArrow=none;html=1;strokeColor=#FF0000;" edge="1" parent="1">
                    <mxGeometry width="50" height="50" relative="1" as="geometry">
                        <mxPoint x="850" y="900" as="sourcePoint"/>
                        <mxPoint x="850" y="800" as="targetPoint"/>
                    </mxGeometry>
                </mxCell>
                <mxCell id="162" value="" style="endArrow=none;html=1;strokeColor=#FF0000;" edge="1" parent="1">
                    <mxGeometry width="50" height="50" relative="1" as="geometry">
                        <mxPoint x="729.43" y="1020" as="sourcePoint"/>
                        <mxPoint x="729.43" y="920" as="targetPoint"/>
                    </mxGeometry>
                </mxCell>
                <mxCell id="163" value="" style="endArrow=none;html=1;strokeColor=#FF0000;" edge="1" parent="1">
                    <mxGeometry width="50" height="50" relative="1" as="geometry">
                        <mxPoint x="534.5" y="1020" as="sourcePoint"/>
                        <mxPoint x="534.5" y="920" as="targetPoint"/>
                    </mxGeometry>
                </mxCell>
                <mxCell id="164" value="" style="endArrow=none;html=1;strokeColor=#FF0000;" edge="1" parent="1">
                    <mxGeometry width="50" height="50" relative="1" as="geometry">
                        <mxPoint x="930" y="1020" as="sourcePoint"/>
                        <mxPoint x="930" y="920" as="targetPoint"/>
                    </mxGeometry>
                </mxCell>
                <mxCell id="165" value="" style="endArrow=classic;html=1;strokeWidth=2;" edge="1" parent="1">
                    <mxGeometry width="50" height="50" relative="1" as="geometry">
                        <mxPoint x="160" y="600" as="sourcePoint"/>
                        <mxPoint x="160" y="1120" as="targetPoint"/>
                    </mxGeometry>
                </mxCell>
                <mxCell id="166" value="&lt;font style=&quot;font-size: 20px;&quot;&gt;&lt;b style=&quot;&quot;&gt;划&lt;/b&gt;&lt;/font&gt;&lt;div&gt;&lt;font style=&quot;font-size: 20px;&quot;&gt;&lt;b style=&quot;&quot;&gt;分&lt;/b&gt;&lt;/font&gt;&lt;/div&gt;" style="text;html=1;align=center;verticalAlign=middle;whiteSpace=wrap;rounded=0;" vertex="1" parent="1">
                    <mxGeometry x="100" y="810" width="60" height="80" as="geometry"/>
                </mxCell>
                <mxCell id="256" style="edgeStyle=none;html=1;exitX=0.5;exitY=1;exitDx=0;exitDy=0;entryX=0.25;entryY=0;entryDx=0;entryDy=0;" edge="1" parent="1" source="167" target="253">
                    <mxGeometry relative="1" as="geometry"/>
                </mxCell>
                <mxCell id="167" value="" style="rounded=0;whiteSpace=wrap;html=1;fillColor=#CCE5FF;" vertex="1" parent="1">
                    <mxGeometry x="216.5" y="1180" width="110" height="60" as="geometry"/>
                </mxCell>
                <mxCell id="168" value="&lt;font style=&quot;font-size: 24px; color: rgb(255, 255, 255);&quot;&gt;64&lt;/font&gt;" style="rounded=1;whiteSpace=wrap;html=1;resizeHeight=0;strokeOpacity=100;fillOpacity=100;strokeColor=none;gradientColor=none;fillColor=#FF99CC;" vertex="1" parent="1">
                    <mxGeometry x="271" y="1190" width="40" height="40" as="geometry"/>
                </mxCell>
                <mxCell id="169" value="&lt;font style=&quot;font-size: 24px; color: rgb(255, 255, 255);&quot;&gt;34&lt;/font&gt;" style="rounded=1;whiteSpace=wrap;html=1;resizeHeight=0;strokeOpacity=100;fillOpacity=100;strokeColor=none;gradientColor=none;fillColor=#FF99CC;" vertex="1" parent="1">
                    <mxGeometry x="231" y="1190" width="40" height="40" as="geometry"/>
                </mxCell>
                <mxCell id="191" style="edgeStyle=none;html=1;exitX=0.5;exitY=1;exitDx=0;exitDy=0;entryX=0.75;entryY=0;entryDx=0;entryDy=0;" edge="1" parent="1" source="144" target="267">
                    <mxGeometry relative="1" as="geometry">
                        <mxPoint x="777.1100000000001" y="1178.7399999999998" as="targetPoint"/>
                    </mxGeometry>
                </mxCell>
                <mxCell id="251" value="" style="endArrow=classic;html=1;strokeWidth=2;" edge="1" parent="1">
                    <mxGeometry width="50" height="50" relative="1" as="geometry">
                        <mxPoint x="160" y="1139.999999999999" as="sourcePoint"/>
                        <mxPoint x="159.9971428571431" y="1649.999999999999" as="targetPoint"/>
                    </mxGeometry>
                </mxCell>
                <mxCell id="252" value="&lt;b style=&quot;&quot;&gt;&lt;font style=&quot;font-size: 20px;&quot;&gt;合&lt;/font&gt;&lt;/b&gt;&lt;div&gt;&lt;b style=&quot;&quot;&gt;&lt;font style=&quot;font-size: 20px;&quot;&gt;并&lt;/font&gt;&lt;/b&gt;&lt;/div&gt;" style="text;html=1;align=center;verticalAlign=middle;whiteSpace=wrap;rounded=0;" vertex="1" parent="1">
                    <mxGeometry x="100" y="1330" width="60" height="80" as="geometry"/>
                </mxCell>
                <mxCell id="297" style="edgeStyle=none;html=1;exitX=0.5;exitY=1;exitDx=0;exitDy=0;entryX=0.25;entryY=0;entryDx=0;entryDy=0;" edge="1" parent="1" source="253" target="282">
                    <mxGeometry relative="1" as="geometry"/>
                </mxCell>
                <mxCell id="253" value="" style="rounded=0;whiteSpace=wrap;html=1;fillColor=#CCE5FF;" vertex="1" parent="1">
                    <mxGeometry x="280" y="1300" width="140" height="60" as="geometry"/>
                </mxCell>
                <mxCell id="254" value="&lt;font style=&quot;font-size: 24px; color: rgb(255, 255, 255);&quot;&gt;34&lt;/font&gt;" style="rounded=1;whiteSpace=wrap;html=1;resizeHeight=0;strokeOpacity=100;fillOpacity=100;strokeColor=none;gradientColor=none;fillColor=#FF99CC;" vertex="1" parent="1">
                    <mxGeometry x="330.5" y="1310" width="40" height="40" as="geometry"/>
                </mxCell>
                <mxCell id="255" value="&lt;font style=&quot;font-size: 24px; color: rgb(255, 255, 255);&quot;&gt;25&lt;/font&gt;" style="rounded=1;whiteSpace=wrap;html=1;resizeHeight=0;strokeOpacity=100;fillOpacity=100;strokeColor=none;gradientColor=none;fillColor=#FF99CC;" vertex="1" parent="1">
                    <mxGeometry x="290.5" y="1310" width="40" height="40" as="geometry"/>
                </mxCell>
                <mxCell id="257" value="&lt;font style=&quot;font-size: 24px; color: rgb(255, 255, 255);&quot;&gt;64&lt;/font&gt;" style="rounded=1;whiteSpace=wrap;html=1;resizeHeight=0;strokeOpacity=100;fillOpacity=100;strokeColor=none;gradientColor=none;fillColor=#FF99CC;" vertex="1" parent="1">
                    <mxGeometry x="370" y="1310" width="40" height="40" as="geometry"/>
                </mxCell>
                <mxCell id="266" style="edgeStyle=none;html=1;exitX=0.5;exitY=1;exitDx=0;exitDy=0;entryX=0.25;entryY=0;entryDx=0;entryDy=0;" edge="1" parent="1" source="259" target="262">
                    <mxGeometry relative="1" as="geometry"/>
                </mxCell>
                <mxCell id="259" value="" style="rounded=0;whiteSpace=wrap;html=1;fillColor=#CCE5FF;" vertex="1" parent="1">
                    <mxGeometry x="470" y="1180" width="110" height="60" as="geometry"/>
                </mxCell>
                <mxCell id="260" value="&lt;font style=&quot;font-size: 24px; color: rgb(255, 255, 255);&quot;&gt;22&lt;/font&gt;" style="rounded=1;whiteSpace=wrap;html=1;resizeHeight=0;strokeOpacity=100;fillOpacity=100;strokeColor=none;gradientColor=none;fillColor=#FF99CC;" vertex="1" parent="1">
                    <mxGeometry x="524.5" y="1190" width="40" height="40" as="geometry"/>
                </mxCell>
                <mxCell id="261" value="&lt;font style=&quot;font-size: 24px; color: rgb(255, 255, 255);&quot;&gt;12&lt;/font&gt;" style="rounded=1;whiteSpace=wrap;html=1;resizeHeight=0;strokeOpacity=100;fillOpacity=100;strokeColor=none;gradientColor=none;fillColor=#FF99CC;" vertex="1" parent="1">
                    <mxGeometry x="484.5" y="1190" width="40" height="40" as="geometry"/>
                </mxCell>
                <mxCell id="298" style="edgeStyle=none;html=1;exitX=0.5;exitY=1;exitDx=0;exitDy=0;entryX=0.75;entryY=0;entryDx=0;entryDy=0;" edge="1" parent="1" source="262" target="282">
                    <mxGeometry relative="1" as="geometry"/>
                </mxCell>
                <mxCell id="262" value="" style="rounded=0;whiteSpace=wrap;html=1;fillColor=#CCE5FF;" vertex="1" parent="1">
                    <mxGeometry x="500" y="1300" width="140" height="60" as="geometry"/>
                </mxCell>
                <mxCell id="263" value="&lt;font style=&quot;font-size: 24px; color: rgb(255, 255, 255);&quot;&gt;12&lt;/font&gt;" style="rounded=1;whiteSpace=wrap;html=1;resizeHeight=0;strokeOpacity=100;fillOpacity=100;strokeColor=none;gradientColor=none;fillColor=#FF99CC;" vertex="1" parent="1">
                    <mxGeometry x="550.5" y="1310" width="40" height="40" as="geometry"/>
                </mxCell>
                <mxCell id="264" value="&lt;font style=&quot;font-size: 24px; color: rgb(255, 255, 255);&quot;&gt;11&lt;/font&gt;" style="rounded=1;whiteSpace=wrap;html=1;resizeHeight=0;strokeOpacity=100;fillOpacity=100;strokeColor=none;gradientColor=none;fillColor=#FF99CC;" vertex="1" parent="1">
                    <mxGeometry x="510.5" y="1310" width="40" height="40" as="geometry"/>
                </mxCell>
                <mxCell id="265" value="&lt;font style=&quot;font-size: 24px; color: rgb(255, 255, 255);&quot;&gt;22&lt;/font&gt;" style="rounded=1;whiteSpace=wrap;html=1;resizeHeight=0;strokeOpacity=100;fillOpacity=100;strokeColor=none;gradientColor=none;fillColor=#FF99CC;" vertex="1" parent="1">
                    <mxGeometry x="590" y="1310" width="40" height="40" as="geometry"/>
                </mxCell>
                <mxCell id="277" style="edgeStyle=none;html=1;exitX=0.25;exitY=1;exitDx=0;exitDy=0;entryX=0.25;entryY=0;entryDx=0;entryDy=0;" edge="1" parent="1" source="267" target="273">
                    <mxGeometry relative="1" as="geometry"/>
                </mxCell>
                <mxCell id="267" value="" style="rounded=0;whiteSpace=wrap;html=1;fillColor=#CCE5FF;" vertex="1" parent="1">
                    <mxGeometry x="700" y="1180" width="110" height="60" as="geometry"/>
                </mxCell>
                <mxCell id="268" value="&lt;font style=&quot;font-size: 24px; color: rgb(255, 255, 255);&quot;&gt;90&lt;/font&gt;" style="rounded=1;whiteSpace=wrap;html=1;resizeHeight=0;strokeOpacity=100;fillOpacity=100;strokeColor=none;gradientColor=none;fillColor=#FF99CC;" vertex="1" parent="1">
                    <mxGeometry x="754.5" y="1190" width="40" height="40" as="geometry"/>
                </mxCell>
                <mxCell id="269" value="&lt;font style=&quot;font-size: 24px; color: rgb(255, 255, 255);&quot;&gt;66&lt;/font&gt;" style="rounded=1;whiteSpace=wrap;html=1;resizeHeight=0;strokeOpacity=100;fillOpacity=100;strokeColor=none;gradientColor=none;fillColor=#FF99CC;" vertex="1" parent="1">
                    <mxGeometry x="714.5" y="1190" width="40" height="40" as="geometry"/>
                </mxCell>
                <mxCell id="296" style="edgeStyle=none;html=1;exitX=0.5;exitY=1;exitDx=0;exitDy=0;entryX=0.75;entryY=0;entryDx=0;entryDy=0;" edge="1" parent="1" source="270" target="289">
                    <mxGeometry relative="1" as="geometry"/>
                </mxCell>
                <mxCell id="270" value="" style="rounded=0;whiteSpace=wrap;html=1;fillColor=#CCE5FF;" vertex="1" parent="1">
                    <mxGeometry x="900" y="1180" width="110" height="60" as="geometry"/>
                </mxCell>
                <mxCell id="271" value="&lt;font style=&quot;font-size: 24px; color: rgb(255, 255, 255);&quot;&gt;56&lt;/font&gt;" style="rounded=1;whiteSpace=wrap;html=1;resizeHeight=0;strokeOpacity=100;fillOpacity=100;strokeColor=none;gradientColor=none;fillColor=#FF99CC;" vertex="1" parent="1">
                    <mxGeometry x="954.5" y="1190" width="40" height="40" as="geometry"/>
                </mxCell>
                <mxCell id="272" value="&lt;font style=&quot;font-size: 24px; color: rgb(255, 255, 255);&quot;&gt;48&lt;/font&gt;" style="rounded=1;whiteSpace=wrap;html=1;resizeHeight=0;strokeOpacity=100;fillOpacity=100;strokeColor=none;gradientColor=none;fillColor=#FF99CC;" vertex="1" parent="1">
                    <mxGeometry x="914.5" y="1190" width="40" height="40" as="geometry"/>
                </mxCell>
                <mxCell id="295" style="edgeStyle=none;html=1;exitX=0.25;exitY=1;exitDx=0;exitDy=0;entryX=0.25;entryY=0;entryDx=0;entryDy=0;" edge="1" parent="1" source="273" target="289">
                    <mxGeometry relative="1" as="geometry"/>
                </mxCell>
                <mxCell id="273" value="" style="rounded=0;whiteSpace=wrap;html=1;fillColor=#CCE5FF;" vertex="1" parent="1">
                    <mxGeometry x="720" y="1300" width="140" height="60" as="geometry"/>
                </mxCell>
                <mxCell id="274" value="&lt;font style=&quot;font-size: 24px; color: rgb(255, 255, 255);&quot;&gt;66&lt;/font&gt;" style="rounded=1;whiteSpace=wrap;html=1;resizeHeight=0;strokeOpacity=100;fillOpacity=100;strokeColor=none;gradientColor=none;fillColor=#FF99CC;" vertex="1" parent="1">
                    <mxGeometry x="770.5" y="1310" width="40" height="40" as="geometry"/>
                </mxCell>
                <mxCell id="275" value="&lt;font style=&quot;font-size: 24px; color: rgb(255, 255, 255);&quot;&gt;39&lt;/font&gt;" style="rounded=1;whiteSpace=wrap;html=1;resizeHeight=0;strokeOpacity=100;fillOpacity=100;strokeColor=none;gradientColor=none;fillColor=#FF99CC;" vertex="1" parent="1">
                    <mxGeometry x="730.5" y="1310" width="40" height="40" as="geometry"/>
                </mxCell>
                <mxCell id="276" value="&lt;font style=&quot;font-size: 24px; color: rgb(255, 255, 255);&quot;&gt;90&lt;/font&gt;" style="rounded=1;whiteSpace=wrap;html=1;resizeHeight=0;strokeOpacity=100;fillOpacity=100;strokeColor=none;gradientColor=none;fillColor=#FF99CC;" vertex="1" parent="1">
                    <mxGeometry x="810" y="1310" width="40" height="40" as="geometry"/>
                </mxCell>
                <mxCell id="311" style="edgeStyle=none;html=1;exitX=0.5;exitY=1;exitDx=0;exitDy=0;entryX=0.25;entryY=0;entryDx=0;entryDy=0;" edge="1" parent="1" source="282" target="299">
                    <mxGeometry relative="1" as="geometry"/>
                </mxCell>
                <mxCell id="282" value="" style="rounded=0;whiteSpace=wrap;html=1;fillColor=#CCE5FF;" vertex="1" parent="1">
                    <mxGeometry x="320" y="1420" width="260" height="60" as="geometry"/>
                </mxCell>
                <mxCell id="283" value="&lt;font style=&quot;font-size: 24px; color: rgb(255, 255, 255);&quot;&gt;12&lt;/font&gt;" style="rounded=1;whiteSpace=wrap;html=1;resizeHeight=0;strokeOpacity=100;fillOpacity=100;strokeColor=none;gradientColor=none;fillColor=#FF99CC;" vertex="1" parent="1">
                    <mxGeometry x="370.5" y="1430" width="40" height="40" as="geometry"/>
                </mxCell>
                <mxCell id="284" value="&lt;font style=&quot;font-size: 24px; color: rgb(255, 255, 255);&quot;&gt;11&lt;/font&gt;" style="rounded=1;whiteSpace=wrap;html=1;resizeHeight=0;strokeOpacity=100;fillOpacity=100;strokeColor=none;gradientColor=none;fillColor=#FF99CC;" vertex="1" parent="1">
                    <mxGeometry x="330.5" y="1430" width="40" height="40" as="geometry"/>
                </mxCell>
                <mxCell id="285" value="&lt;font style=&quot;font-size: 24px; color: rgb(255, 255, 255);&quot;&gt;22&lt;/font&gt;" style="rounded=1;whiteSpace=wrap;html=1;resizeHeight=0;strokeOpacity=100;fillOpacity=100;strokeColor=none;gradientColor=none;fillColor=#FF99CC;" vertex="1" parent="1">
                    <mxGeometry x="410" y="1430" width="40" height="40" as="geometry"/>
                </mxCell>
                <mxCell id="286" value="&lt;font style=&quot;font-size: 24px; color: rgb(255, 255, 255);&quot;&gt;25&lt;/font&gt;" style="rounded=1;whiteSpace=wrap;html=1;resizeHeight=0;strokeOpacity=100;fillOpacity=100;strokeColor=none;gradientColor=none;fillColor=#FF99CC;" vertex="1" parent="1">
                    <mxGeometry x="450" y="1430" width="40" height="40" as="geometry"/>
                </mxCell>
                <mxCell id="287" value="&lt;font style=&quot;font-size: 24px; color: rgb(255, 255, 255);&quot;&gt;34&lt;/font&gt;" style="rounded=1;whiteSpace=wrap;html=1;resizeHeight=0;strokeOpacity=100;fillOpacity=100;strokeColor=none;gradientColor=none;fillColor=#FF99CC;" vertex="1" parent="1">
                    <mxGeometry x="490" y="1430" width="40" height="40" as="geometry"/>
                </mxCell>
                <mxCell id="288" value="&lt;font style=&quot;font-size: 24px; color: rgb(255, 255, 255);&quot;&gt;64&lt;/font&gt;" style="rounded=1;whiteSpace=wrap;html=1;resizeHeight=0;strokeOpacity=100;fillOpacity=100;strokeColor=none;gradientColor=none;fillColor=#FF99CC;" vertex="1" parent="1">
                    <mxGeometry x="529.5" y="1430" width="40" height="40" as="geometry"/>
                </mxCell>
                <mxCell id="312" style="edgeStyle=none;html=1;exitX=0.5;exitY=1;exitDx=0;exitDy=0;entryX=0.75;entryY=0;entryDx=0;entryDy=0;" edge="1" parent="1" source="289" target="299">
                    <mxGeometry relative="1" as="geometry"/>
                </mxCell>
                <mxCell id="289" value="" style="rounded=0;whiteSpace=wrap;html=1;fillColor=#CCE5FF;" vertex="1" parent="1">
                    <mxGeometry x="720" y="1420" width="220" height="60" as="geometry"/>
                </mxCell>
                <mxCell id="290" value="&lt;font style=&quot;font-size: 24px; color: rgb(255, 255, 255);&quot;&gt;48&lt;/font&gt;" style="rounded=1;whiteSpace=wrap;html=1;resizeHeight=0;strokeOpacity=100;fillOpacity=100;strokeColor=none;gradientColor=none;fillColor=#FF99CC;" vertex="1" parent="1">
                    <mxGeometry x="770.5" y="1430" width="40" height="40" as="geometry"/>
                </mxCell>
                <mxCell id="291" value="&lt;font style=&quot;font-size: 24px; color: rgb(255, 255, 255);&quot;&gt;39&lt;/font&gt;" style="rounded=1;whiteSpace=wrap;html=1;resizeHeight=0;strokeOpacity=100;fillOpacity=100;strokeColor=none;gradientColor=none;fillColor=#FF99CC;" vertex="1" parent="1">
                    <mxGeometry x="730.5" y="1430" width="40" height="40" as="geometry"/>
                </mxCell>
                <mxCell id="292" value="&lt;font style=&quot;font-size: 24px; color: rgb(255, 255, 255);&quot;&gt;56&lt;/font&gt;" style="rounded=1;whiteSpace=wrap;html=1;resizeHeight=0;strokeOpacity=100;fillOpacity=100;strokeColor=none;gradientColor=none;fillColor=#FF99CC;" vertex="1" parent="1">
                    <mxGeometry x="810" y="1430" width="40" height="40" as="geometry"/>
                </mxCell>
                <mxCell id="293" value="&lt;font style=&quot;font-size: 24px; color: rgb(255, 255, 255);&quot;&gt;66&lt;/font&gt;" style="rounded=1;whiteSpace=wrap;html=1;resizeHeight=0;strokeOpacity=100;fillOpacity=100;strokeColor=none;gradientColor=none;fillColor=#FF99CC;" vertex="1" parent="1">
                    <mxGeometry x="850" y="1430" width="40" height="40" as="geometry"/>
                </mxCell>
                <mxCell id="294" value="&lt;font style=&quot;font-size: 24px; color: rgb(255, 255, 255);&quot;&gt;90&lt;/font&gt;" style="rounded=1;whiteSpace=wrap;html=1;resizeHeight=0;strokeOpacity=100;fillOpacity=100;strokeColor=none;gradientColor=none;fillColor=#FF99CC;" vertex="1" parent="1">
                    <mxGeometry x="889.5" y="1430" width="40" height="40" as="geometry"/>
                </mxCell>
                <mxCell id="299" value="" style="rounded=0;whiteSpace=wrap;html=1;fillColor=#CCE5FF;" vertex="1" parent="1">
                    <mxGeometry x="380" y="1540" width="460" height="60" as="geometry"/>
                </mxCell>
                <mxCell id="300" value="&lt;font style=&quot;font-size: 24px; color: rgb(255, 255, 255);&quot;&gt;12&lt;/font&gt;" style="rounded=1;whiteSpace=wrap;html=1;resizeHeight=0;strokeOpacity=100;fillOpacity=100;strokeColor=none;gradientColor=none;fillColor=#FF99CC;" vertex="1" parent="1">
                    <mxGeometry x="430.5" y="1550" width="40" height="40" as="geometry"/>
                </mxCell>
                <mxCell id="301" value="&lt;font style=&quot;font-size: 24px; color: rgb(255, 255, 255);&quot;&gt;11&lt;/font&gt;" style="rounded=1;whiteSpace=wrap;html=1;resizeHeight=0;strokeOpacity=100;fillOpacity=100;strokeColor=none;gradientColor=none;fillColor=#FF99CC;" vertex="1" parent="1">
                    <mxGeometry x="390.5" y="1550" width="40" height="40" as="geometry"/>
                </mxCell>
                <mxCell id="302" value="&lt;font style=&quot;font-size: 24px; color: rgb(255, 255, 255);&quot;&gt;22&lt;/font&gt;" style="rounded=1;whiteSpace=wrap;html=1;resizeHeight=0;strokeOpacity=100;fillOpacity=100;strokeColor=none;gradientColor=none;fillColor=#FF99CC;" vertex="1" parent="1">
                    <mxGeometry x="470" y="1550" width="40" height="40" as="geometry"/>
                </mxCell>
                <mxCell id="303" value="&lt;font style=&quot;font-size: 24px; color: rgb(255, 255, 255);&quot;&gt;25&lt;/font&gt;" style="rounded=1;whiteSpace=wrap;html=1;resizeHeight=0;strokeOpacity=100;fillOpacity=100;strokeColor=none;gradientColor=none;fillColor=#FF99CC;" vertex="1" parent="1">
                    <mxGeometry x="510" y="1550" width="40" height="40" as="geometry"/>
                </mxCell>
                <mxCell id="304" value="&lt;font style=&quot;font-size: 24px; color: rgb(255, 255, 255);&quot;&gt;34&lt;/font&gt;" style="rounded=1;whiteSpace=wrap;html=1;resizeHeight=0;strokeOpacity=100;fillOpacity=100;strokeColor=none;gradientColor=none;fillColor=#FF99CC;" vertex="1" parent="1">
                    <mxGeometry x="550" y="1550" width="40" height="40" as="geometry"/>
                </mxCell>
                <mxCell id="305" value="&lt;font style=&quot;font-size: 24px; color: rgb(255, 255, 255);&quot;&gt;64&lt;/font&gt;" style="rounded=1;whiteSpace=wrap;html=1;resizeHeight=0;strokeOpacity=100;fillOpacity=100;strokeColor=none;gradientColor=none;fillColor=#FF99CC;" vertex="1" parent="1">
                    <mxGeometry x="709" y="1550" width="40" height="40" as="geometry"/>
                </mxCell>
                <mxCell id="306" value="&lt;font style=&quot;font-size: 24px; color: rgb(255, 255, 255);&quot;&gt;39&lt;/font&gt;" style="rounded=1;whiteSpace=wrap;html=1;resizeHeight=0;strokeOpacity=100;fillOpacity=100;strokeColor=none;gradientColor=none;fillColor=#FF99CC;" vertex="1" parent="1">
                    <mxGeometry x="589.5" y="1550" width="40" height="40" as="geometry"/>
                </mxCell>
                <mxCell id="307" value="&lt;font style=&quot;font-size: 24px; color: rgb(255, 255, 255);&quot;&gt;48&lt;/font&gt;" style="rounded=1;whiteSpace=wrap;html=1;resizeHeight=0;strokeOpacity=100;fillOpacity=100;strokeColor=none;gradientColor=none;fillColor=#FF99CC;" vertex="1" parent="1">
                    <mxGeometry x="629.5" y="1550" width="40" height="40" as="geometry"/>
                </mxCell>
                <mxCell id="308" value="&lt;font style=&quot;font-size: 24px; color: rgb(255, 255, 255);&quot;&gt;56&lt;/font&gt;" style="rounded=1;whiteSpace=wrap;html=1;resizeHeight=0;strokeOpacity=100;fillOpacity=100;strokeColor=none;gradientColor=none;fillColor=#FF99CC;" vertex="1" parent="1">
                    <mxGeometry x="669" y="1550" width="40" height="40" as="geometry"/>
                </mxCell>
                <mxCell id="309" value="&lt;font style=&quot;font-size: 24px; color: rgb(255, 255, 255);&quot;&gt;66&lt;/font&gt;" style="rounded=1;whiteSpace=wrap;html=1;resizeHeight=0;strokeOpacity=100;fillOpacity=100;strokeColor=none;gradientColor=none;fillColor=#FF99CC;" vertex="1" parent="1">
                    <mxGeometry x="749" y="1550" width="40" height="40" as="geometry"/>
                </mxCell>
                <mxCell id="310" value="&lt;font style=&quot;font-size: 24px; color: rgb(255, 255, 255);&quot;&gt;90&lt;/font&gt;" style="rounded=1;whiteSpace=wrap;html=1;resizeHeight=0;strokeOpacity=100;fillOpacity=100;strokeColor=none;gradientColor=none;fillColor=#FF99CC;" vertex="1" parent="1">
                    <mxGeometry x="788.5" y="1550" width="40" height="40" as="geometry"/>
                </mxCell>
            </root>
        </mxGraphModel>
    </diagram>
</mxfile>